<svg width="25" height="26" viewBox="0 0 25 26" fill="none" xmlns="http://www.w3.org/2000/svg">
<path d="M22.3214 0.774414H2.67857C1.19978 0.774414 0 1.96657 0 3.43596V22.954C0 24.4234 1.19978 25.6155 2.67857 25.6155H22.3214C23.8002 25.6155 25 24.4234 25 22.954V3.43596C25 1.96657 23.8002 0.774414 22.3214 0.774414ZM20.5357 14.7475C20.5357 15.1135 20.2344 15.4129 19.8661 15.4129H14.7321V20.5142C14.7321 20.8802 14.4308 21.1796 14.0625 21.1796H10.9375C10.5692 21.1796 10.2679 20.8802 10.2679 20.5142V15.4129H5.13393C4.76562 15.4129 4.46429 15.1135 4.46429 14.7475V11.6424C4.46429 11.2764 4.76562 10.977 5.13393 10.977H10.2679V5.87571C10.2679 5.50975 10.5692 5.21032 10.9375 5.21032H14.0625C14.4308 5.21032 14.7321 5.50975 14.7321 5.87571V10.977H19.8661C20.2344 10.977 20.5357 11.2764 20.5357 11.6424V14.7475Z" fill="#321E82"/>
</svg>
