<svg width="25" height="29" viewBox="0 0 25 29" fill="none" xmlns="http://www.w3.org/2000/svg">
<path d="M22.6562 0C23.9507 0 25 1.1916 25 2.66156V18.6309C25 20.1009 23.9507 21.2925 22.6562 21.2925H8.59375C7.29932 21.2925 6.25 20.1009 6.25 18.6309V2.66156C6.25 1.1916 7.29932 0 8.59375 0H22.6562ZM8.59375 23.0669C6.43984 23.0669 4.6875 21.0769 4.6875 18.6309V7.0975H2.34375C1.04932 7.0975 0 8.2891 0 9.75906V25.7284C0 27.1984 1.04932 28.39 2.34375 28.39H16.4062C17.7007 28.39 18.75 27.1984 18.75 25.7284V23.0669H8.59375Z" fill="#321E82"/>
</svg>
