<svg width="34" height="26" viewBox="0 0 34 26" fill="none" xmlns="http://www.w3.org/2000/svg">
<path d="M33.0039 14.1289L21.8477 25.2851C20.8516 26.2812 19.125 25.5839 19.125 24.1562V17.7812H10.0938C9.21055 17.7812 8.5 17.0707 8.5 16.1874V9.81245C8.5 8.92924 9.21055 8.2187 10.0938 8.2187H19.125V1.8437C19.125 0.422604 20.8449 -0.281303 21.8477 0.714791L33.0039 11.871C33.6215 12.4953 33.6215 13.5046 33.0039 14.1289ZM12.75 24.9531V22.2968C12.75 21.8585 12.3914 21.4999 11.9531 21.4999H6.375C5.19961 21.4999 4.25 20.5503 4.25 19.3749V6.62495C4.25 5.44956 5.19961 4.49995 6.375 4.49995H11.9531C12.3914 4.49995 12.75 4.14135 12.75 3.70307V1.04682C12.75 0.608541 12.3914 0.249948 11.9531 0.249948H6.375C2.85547 0.249948 0 3.10542 0 6.62495V19.3749C0 22.8945 2.85547 25.7499 6.375 25.7499H11.9531C12.3914 25.7499 12.75 25.3914 12.75 24.9531Z" fill="#321E82"/>
</svg>
