<svg width="29" height="26" viewBox="0 0 29 26" fill="none" xmlns="http://www.w3.org/2000/svg">
<path d="M8.45831 10.6786V15.3214C8.45831 16.0907 7.84971 16.7143 7.09894 16.7143H1.35938C0.608604 16.7143 0 16.0907 0 15.3214V10.6786C0 9.90931 0.608604 9.28571 1.35938 9.28571H7.09894C7.84971 9.28571 8.45831 9.90931 8.45831 10.6786ZM0 19.9643V24.6071C0 25.3764 0.608604 26 1.35938 26H7.09894C7.84971 26 8.45831 25.3764 8.45831 24.6071V19.9643C8.45831 19.195 7.84971 18.5714 7.09894 18.5714H1.35938C0.608604 18.5714 0 19.195 0 19.9643ZM7.09894 0H1.35938C0.608604 0 0 0.623594 0 1.39286V6.03571C0 6.80498 0.608604 7.42857 1.35938 7.42857H7.09894C7.84971 7.42857 8.45831 6.80498 8.45831 6.03571V1.39286C8.45831 0.623594 7.84971 0 7.09894 0ZM11.6302 26H27.6406C28.3914 26 29 25.3764 29 24.6071V19.9643C29 19.195 28.3914 18.5714 27.6406 18.5714H11.6302C10.8794 18.5714 10.2708 19.195 10.2708 19.9643V24.6071C10.2708 25.3764 10.8794 26 11.6302 26ZM10.2708 1.39286V6.03571C10.2708 6.80498 10.8794 7.42857 11.6302 7.42857H27.6406C28.3914 7.42857 29 6.80498 29 6.03571V1.39286C29 0.623594 28.3914 0 27.6406 0H11.6302C10.8794 0 10.2708 0.623594 10.2708 1.39286ZM11.6302 16.7143H27.6406C28.3914 16.7143 29 16.0907 29 15.3214V10.6786C29 9.90931 28.3914 9.28571 27.6406 9.28571H11.6302C10.8794 9.28571 10.2708 9.90931 10.2708 10.6786V15.3214C10.2708 16.0907 10.8794 16.7143 11.6302 16.7143Z" fill="#4B29E8"/>
</svg>
