<svg width="25" height="29" viewBox="0 0 25 29" fill="none" xmlns="http://www.w3.org/2000/svg">
<path d="M21.875 3.54875H16.6667C16.6667 1.59139 14.7982 0 12.5 0C10.2018 0 8.33333 1.59139 8.33333 3.54875H3.125C1.39974 3.54875 0 4.74091 0 6.21031V25.7284C0 27.1978 1.39974 28.39 3.125 28.39H21.875C23.6003 28.39 25 27.1978 25 25.7284V6.21031C25 4.74091 23.6003 3.54875 21.875 3.54875ZM6.25 23.5105C5.38411 23.5105 4.6875 22.9172 4.6875 22.1797C4.6875 21.4422 5.38411 20.8489 6.25 20.8489C7.11589 20.8489 7.8125 21.4422 7.8125 22.1797C7.8125 22.9172 7.11589 23.5105 6.25 23.5105ZM6.25 18.1873C5.38411 18.1873 4.6875 17.594 4.6875 16.8566C4.6875 16.1191 5.38411 15.5258 6.25 15.5258C7.11589 15.5258 7.8125 16.1191 7.8125 16.8566C7.8125 17.594 7.11589 18.1873 6.25 18.1873ZM6.25 12.8642C5.38411 12.8642 4.6875 12.2709 4.6875 11.5334C4.6875 10.796 5.38411 10.2027 6.25 10.2027C7.11589 10.2027 7.8125 10.796 7.8125 11.5334C7.8125 12.2709 7.11589 12.8642 6.25 12.8642ZM12.5 2.21797C13.3659 2.21797 14.0625 2.81128 14.0625 3.54875C14.0625 4.28622 13.3659 4.87953 12.5 4.87953C11.6341 4.87953 10.9375 4.28622 10.9375 3.54875C10.9375 2.81128 11.6341 2.21797 12.5 2.21797ZM20.8333 22.6233C20.8333 22.8673 20.599 23.0669 20.3125 23.0669H10.9375C10.651 23.0669 10.4167 22.8673 10.4167 22.6233V21.7361C10.4167 21.4921 10.651 21.2925 10.9375 21.2925H20.3125C20.599 21.2925 20.8333 21.4921 20.8333 21.7361V22.6233ZM20.8333 17.3002C20.8333 17.5441 20.599 17.7437 20.3125 17.7437H10.9375C10.651 17.7437 10.4167 17.5441 10.4167 17.3002V16.413C10.4167 16.169 10.651 15.9694 10.9375 15.9694H20.3125C20.599 15.9694 20.8333 16.169 20.8333 16.413V17.3002ZM20.8333 11.977C20.8333 12.221 20.599 12.4206 20.3125 12.4206H10.9375C10.651 12.4206 10.4167 12.221 10.4167 11.977V11.0898C10.4167 10.8459 10.651 10.6462 10.9375 10.6462H20.3125C20.599 10.6462 20.8333 10.8459 20.8333 11.0898V11.977Z" fill="#321E82"/>
</svg>
